<?xml version="1.0" encoding="UTF-8"?>
<!DOCTYPE svg PUBLIC "-//W3C//DTD SVG 1.1//EN" "http://www.w3.org/Graphics/SVG/1.1/DTD/svg11.dtd">
<svg version="1.2" width="240.97mm" height="106.21mm" viewBox="-7057 -2655 24097 10621" preserveAspectRatio="xMidYMid" fill-rule="evenodd" stroke-width="28.222" stroke-linejoin="round" xmlns="http://www.w3.org/2000/svg" xmlns:ooo="http://xml.openoffice.org/svg/export" xmlns:xlink="http://www.w3.org/1999/xlink" xmlns:presentation="http://sun.com/xmlns/staroffice/presentation" xmlns:smil="http://www.w3.org/2001/SMIL20/" xmlns:anim="urn:oasis:names:tc:opendocument:xmlns:animation:1.0" xml:space="preserve">
 <defs class="EmbeddedBulletChars">
  <g id="bullet-char-template-57356" transform="scale(0.00048828125,-0.00048828125)">
   <path d="M 580,1141 L 1163,571 580,0 -4,571 580,1141 Z"/>
  </g>
  <g id="bullet-char-template-57354" transform="scale(0.00048828125,-0.00048828125)">
   <path d="M 8,1128 L 1137,1128 1137,0 8,0 8,1128 Z"/>
  </g>
  <g id="bullet-char-template-10146" transform="scale(0.00048828125,-0.00048828125)">
   <path d="M 174,0 L 602,739 174,1481 1456,739 174,0 Z M 1358,739 L 309,1346 659,739 1358,739 Z"/>
  </g>
  <g id="bullet-char-template-10132" transform="scale(0.00048828125,-0.00048828125)">
   <path d="M 2015,739 L 1276,0 717,0 1260,543 174,543 174,936 1260,936 717,1481 1274,1481 2015,739 Z"/>
  </g>
  <g id="bullet-char-template-10007" transform="scale(0.00048828125,-0.00048828125)">
   <path d="M 0,-2 C -7,14 -16,27 -25,37 L 356,567 C 262,823 215,952 215,954 215,979 228,992 255,992 264,992 276,990 289,987 310,991 331,999 354,1012 L 381,999 492,748 772,1049 836,1024 860,1049 C 881,1039 901,1025 922,1006 886,937 835,863 770,784 769,783 710,716 594,584 L 774,223 C 774,196 753,168 711,139 L 727,119 C 717,90 699,76 672,76 641,76 570,178 457,381 L 164,-76 C 142,-110 111,-127 72,-127 30,-127 9,-110 8,-76 1,-67 -2,-52 -2,-32 -2,-23 -1,-13 0,-2 Z"/>
  </g>
  <g id="bullet-char-template-10004" transform="scale(0.00048828125,-0.00048828125)">
   <path d="M 285,-33 C 182,-33 111,30 74,156 52,228 41,333 41,471 41,549 55,616 82,672 116,743 169,778 240,778 293,778 328,747 346,684 L 369,508 C 377,444 397,411 428,410 L 1163,1116 C 1174,1127 1196,1133 1229,1133 1271,1133 1292,1118 1292,1087 L 1292,965 C 1292,929 1282,901 1262,881 L 442,47 C 390,-6 338,-33 285,-33 Z"/>
  </g>
  <g id="bullet-char-template-9679" transform="scale(0.00048828125,-0.00048828125)">
   <path d="M 813,0 C 632,0 489,54 383,161 276,268 223,411 223,592 223,773 276,916 383,1023 489,1130 632,1184 813,1184 992,1184 1136,1130 1245,1023 1353,916 1407,772 1407,592 1407,412 1353,268 1245,161 1136,54 992,0 813,0 Z"/>
  </g>
  <g id="bullet-char-template-8226" transform="scale(0.00048828125,-0.00048828125)">
   <path d="M 346,457 C 273,457 209,483 155,535 101,586 74,649 74,723 74,796 101,859 155,911 209,963 273,989 346,989 419,989 480,963 531,910 582,859 608,796 608,723 608,648 583,586 532,535 482,483 420,457 346,457 Z"/>
  </g>
  <g id="bullet-char-template-8211" transform="scale(0.00048828125,-0.00048828125)">
   <path d="M -4,459 L 1135,459 1135,606 -4,606 -4,459 Z"/>
  </g>
  <g id="bullet-char-template-61548" transform="scale(0.00048828125,-0.00048828125)">
   <path d="M 173,740 C 173,903 231,1043 346,1159 462,1274 601,1332 765,1332 928,1332 1067,1274 1183,1159 1299,1043 1357,903 1357,740 1357,577 1299,437 1183,322 1067,206 928,148 765,148 601,148 462,206 346,322 231,437 173,577 173,740 Z"/>
  </g>
 </defs>
 <g class="Page">
  <g class="com.sun.star.drawing.ClosedBezierShape">
   <g id="id3">
    <rect class="BoundingBox" stroke="none" fill="none" x="-7057" y="-2655" width="6487" height="5076"/>
    <path fill="rgb(255,255,255)" stroke="none" d="M -3559,691 L -2180,-2655 -571,-2655 -571,-2517 -735,-2517 C -884,-2517 -1005,-2491 -1094,-2440 -1157,-2399 -1206,-2342 -1243,-2259 -1272,-2201 -1284,-2043 -1284,-1793 L -1284,1553 C -1284,1811 -1272,1975 -1243,2038 -1218,2104 -1160,2159 -1074,2208 -991,2257 -876,2283 -735,2283 L -571,2283 -571,2420 -2763,2420 -2763,2283 -2599,2283 C -2450,2283 -2329,2257 -2240,2202 -2177,2168 -2128,2107 -2091,2024 -2062,1964 -2051,1806 -2051,1553 L -2051,-2207 -3995,2420 -4084,2420 -6060,-2172 -6060,1398 C -6060,1648 -6055,1803 -6040,1860 -6009,1984 -5940,2084 -5831,2165 -5721,2242 -5552,2283 -5319,2283 L -5319,2420 -7057,2420 -7057,2283 -7005,2283 C -6893,2285 -6790,2265 -6692,2228 -6595,2188 -6520,2136 -6471,2073 -6419,2007 -6382,1918 -6353,1800 -6350,1771 -6348,1645 -6348,1418 L -6348,-1793 C -6348,-2049 -6362,-2210 -6388,-2273 -6416,-2336 -6471,-2394 -6557,-2445 -6641,-2491 -6755,-2517 -6896,-2517 L -7057,-2517 -7057,-2655 -4983,-2655 -3559,691 Z"/>
   </g>
  </g>
  <g class="com.sun.star.drawing.ClosedBezierShape">
   <g id="id4">
    <rect class="BoundingBox" stroke="none" fill="none" x="-7057" y="2889" width="6487" height="5077"/>
    <path fill="rgb(255,255,255)" stroke="none" d="M -3559,6232 L -2180,2889 -571,2889 -571,3027 -735,3027 C -884,3027 -1005,3053 -1094,3104 -1157,3139 -1206,3199 -1243,3280 -1272,3340 -1284,3498 -1284,3748 L -1284,7094 C -1284,7353 -1272,7513 -1243,7580 -1218,7643 -1160,7700 -1074,7752 -991,7801 -876,7827 -735,7827 L -571,7827 -571,7964 -2763,7964 -2763,7827 -2599,7827 C -2450,7827 -2329,7798 -2240,7746 -2177,7712 -2128,7648 -2091,7565 -2062,7505 -2051,7347 -2051,7094 L -2051,3334 -3995,7964 -4084,7964 -6060,3366 -6060,6939 C -6060,7189 -6055,7341 -6040,7399 -6009,7525 -5940,7625 -5831,7706 -5721,7786 -5552,7827 -5319,7827 L -5319,7964 -7057,7964 -7057,7827 -7005,7827 C -6893,7827 -6790,7809 -6692,7772 -6595,7732 -6520,7677 -6471,7614 -6419,7548 -6382,7456 -6353,7341 -6350,7312 -6348,7186 -6348,6959 L -6348,3748 C -6348,3492 -6362,3331 -6388,3268 -6416,3205 -6471,3148 -6557,3099 -6641,3050 -6755,3027 -6896,3027 L -7057,3027 -7057,2889 -4983,2889 -3559,6232 Z"/>
   </g>
  </g>
  <g class="com.sun.star.drawing.ClosedBezierShape">
   <g id="id5">
    <rect class="BoundingBox" stroke="none" fill="none" x="1821" y="-386" width="3342" height="2442"/>
    <path fill="rgb(255,255,255)" stroke="none" d="M 3507,1225 L 4168,-386 5162,-386 5162,-320 5084,-320 C 5012,-320 4955,-308 4912,-283 4880,-265 4857,-237 4837,-199 4825,-171 4820,-93 4820,28 L 4820,1639 C 4820,1763 4825,1843 4837,1875 4851,1903 4877,1932 4920,1955 4960,1978 5015,1989 5084,1989 L 5162,1989 5162,2055 3889,2055 3889,1989 3967,1989 C 4038,1989 4096,1978 4139,1952 4171,1935 4194,1906 4211,1866 4225,1837 4231,1763 4231,1639 L 4231,-173 3295,2055 3251,2055 2298,-156 2298,1564 C 2298,1685 2304,1760 2309,1785 2324,1846 2361,1895 2413,1935 2464,1972 2548,1989 2660,1989 L 2660,2055 1821,2055 1821,1989 1847,1989 C 1899,1992 1950,1984 1996,1964 2042,1946 2080,1920 2102,1889 2128,1857 2146,1814 2160,1757 2160,1745 2163,1682 2163,1573 L 2163,28 C 2163,-96 2157,-173 2143,-205 2128,-234 2102,-262 2062,-285 2022,-308 1967,-320 1899,-320 L 1821,-320 1821,-386 2821,-386 3507,1225 Z"/>
   </g>
  </g>
  <g class="com.sun.star.drawing.ClosedBezierShape">
   <g id="id6">
    <rect class="BoundingBox" stroke="none" fill="none" x="5368" y="321" width="1412" height="1788"/>
    <path fill="rgb(255,255,255)" stroke="none" d="M 6336,1030 C 6336,838 6324,706 6304,634 6284,562 6250,508 6207,470 6181,447 6146,439 6106,439 6043,439 5991,467 5951,531 5882,637 5845,783 5845,970 L 5845,1030 6336,1030 Z M 6778,1151 L 5856,1151 C 5865,1378 5925,1556 6034,1685 6115,1783 6215,1835 6333,1835 6405,1835 6468,1815 6528,1774 6586,1734 6649,1662 6718,1556 L 6778,1596 C 6686,1783 6586,1915 6477,1993 6365,2070 6238,2108 6092,2108 5842,2108 5655,2013 5526,1820 5420,1665 5368,1473 5368,1240 5368,959 5446,737 5598,571 5750,404 5928,321 6132,321 6302,321 6451,390 6577,531 6701,671 6770,878 6778,1151 Z"/>
   </g>
  </g>
  <g class="com.sun.star.drawing.ClosedBezierShape">
   <g id="id7">
    <rect class="BoundingBox" stroke="none" fill="none" x="6937" y="-444" width="914" height="2501"/>
    <path fill="rgb(255,255,255)" stroke="none" d="M 7391,-443 C 7474,-443 7540,-417 7592,-363 7646,-308 7675,-242 7675,-164 7675,-90 7646,-24 7592,31 7537,86 7471,111 7391,111 7316,111 7250,86 7196,31 7141,-24 7115,-90 7115,-164 7115,-242 7141,-308 7196,-363 7250,-417 7316,-443 7391,-443 Z M 7646,373 L 7646,1708 C 7646,1826 7661,1904 7690,1935 7715,1970 7770,1987 7850,1993 L 7850,2056 6937,2056 6937,1993 C 7012,1990 7069,1967 7104,1927 7127,1901 7141,1826 7141,1708 L 7141,723 C 7141,603 7127,528 7098,493 7072,462 7017,442 6937,439 L 6937,373 7646,373 Z"/>
   </g>
  </g>
  <g class="com.sun.star.drawing.ClosedBezierShape">
   <g id="id8">
    <rect class="BoundingBox" stroke="none" fill="none" x="8014" y="321" width="1819" height="1737"/>
    <path fill="rgb(255,255,255)" stroke="none" d="M 8698,373 L 8698,588 C 8784,496 8867,427 8948,384 9025,341 9111,321 9203,321 9312,321 9401,353 9473,413 9548,473 9594,548 9620,637 9637,706 9648,838 9648,1030 L 9648,1691 C 9648,1820 9660,1901 9683,1932 9706,1964 9758,1984 9832,1993 L 9832,2056 8976,2056 8976,1993 C 9042,1984 9085,1958 9114,1912 9134,1884 9143,1809 9143,1691 L 9143,939 C 9143,801 9137,715 9126,677 9117,640 9097,614 9071,594 9045,574 9016,565 8988,565 8884,565 8787,637 8698,786 L 8698,1691 C 8698,1815 8709,1895 8735,1930 8758,1964 8801,1984 8864,1993 L 8864,2056 8014,2056 8014,1993 C 8083,1984 8135,1961 8163,1924 8183,1898 8195,1820 8195,1691 L 8195,737 C 8195,608 8183,531 8160,499 8135,467 8086,447 8014,439 L 8014,373 8698,373 Z"/>
   </g>
  </g>
  <g class="com.sun.star.drawing.ClosedBezierShape">
   <g id="id9">
    <rect class="BoundingBox" stroke="none" fill="none" x="10013" y="-386" width="1819" height="2494"/>
    <path fill="rgb(255,255,255)" stroke="none" d="M 10714,700 L 10714,1452 C 10714,1605 10717,1702 10722,1742 10737,1814 10766,1872 10809,1915 10855,1958 10915,1981 10984,1981 11047,1981 11099,1964 11142,1929 11185,1895 11222,1826 11251,1722 11280,1619 11297,1432 11297,1162 11297,904 11262,726 11199,631 11153,562 11090,525 11010,525 10906,525 10809,585 10714,700 Z M 10714,-386 L 10714,539 C 10855,392 11010,321 11176,321 11291,321 11400,355 11504,421 11607,490 11688,585 11745,711 11802,835 11831,981 11831,1142 11831,1329 11794,1495 11722,1648 11647,1797 11550,1912 11426,1989 11303,2067 11162,2107 11007,2107 10915,2107 10834,2093 10763,2064 10691,2035 10622,1989 10553,1923 L 10274,2104 10214,2104 10214,-38 C 10214,-136 10211,-194 10203,-217 10188,-251 10171,-277 10145,-291 10119,-308 10076,-317 10013,-320 L 10013,-386 10714,-386 Z"/>
   </g>
  </g>
  <g class="com.sun.star.drawing.ClosedBezierShape">
   <g id="id10">
    <rect class="BoundingBox" stroke="none" fill="none" x="12130" y="321" width="1411" height="1788"/>
    <path fill="rgb(255,255,255)" stroke="none" d="M 13098,1030 C 13098,838 13086,706 13066,634 13043,562 13012,508 12969,470 12943,447 12908,439 12865,439 12805,439 12753,467 12713,531 12644,637 12607,783 12607,970 L 12607,1030 13098,1030 Z M 13540,1151 L 12615,1151 C 12627,1378 12687,1556 12794,1685 12877,1783 12977,1835 13092,1835 13164,1835 13230,1815 13290,1774 13348,1734 13411,1662 13480,1556 L 13540,1596 C 13448,1783 13348,1915 13239,1993 13127,2070 13000,2108 12854,2108 12604,2108 12411,2013 12285,1820 12182,1665 12130,1473 12130,1240 12130,959 12205,737 12357,571 12512,404 12690,321 12894,321 13064,321 13213,390 13336,531 13463,671 13529,878 13540,1151 Z"/>
   </g>
  </g>
  <g class="com.sun.star.drawing.ClosedBezierShape">
   <g id="id11">
    <rect class="BoundingBox" stroke="none" fill="none" x="13757" y="321" width="1450" height="1737"/>
    <path fill="rgb(255,255,255)" stroke="none" d="M 14444,373 L 14444,752 C 14559,580 14657,465 14740,407 14827,350 14907,321 14984,321 15051,321 15105,341 15145,384 15186,424 15206,482 15206,559 15206,640 15186,700 15148,746 15108,789 15062,812 15007,812 14941,812 14887,792 14841,752 14795,712 14766,689 14758,683 14746,674 14732,671 14717,671 14683,671 14648,686 14617,712 14568,752 14531,809 14505,887 14465,1002 14444,1134 14444,1275 L 14444,1662 14447,1763 C 14447,1829 14450,1875 14459,1892 14473,1927 14496,1950 14528,1964 14554,1978 14602,1990 14669,1993 L 14669,2056 13758,2056 13758,1993 C 13830,1987 13882,1967 13907,1932 13933,1898 13945,1809 13945,1662 L 13945,729 C 13945,631 13939,571 13930,545 13919,511 13902,485 13879,470 13856,456 13815,445 13758,439 L 13758,373 14444,373 Z"/>
   </g>
  </g>
  <g class="com.sun.star.drawing.ClosedBezierShape">
   <g id="id12">
    <rect class="BoundingBox" stroke="none" fill="none" x="15399" y="321" width="1641" height="2532"/>
    <path fill="rgb(255,255,255)" stroke="none" d="M 16154,433 C 16085,433 16025,467 15976,536 15928,608 15905,755 15905,973 15905,1154 15928,1275 15976,1344 16022,1412 16083,1444 16146,1444 16218,1444 16278,1412 16327,1344 16376,1277 16399,1148 16399,959 16399,743 16373,597 16318,519 16278,462 16226,433 16154,433 Z M 16048,2306 C 15925,2306 15844,2314 15804,2337 15735,2375 15701,2424 15701,2487 15701,2550 15735,2605 15807,2653 15879,2705 16011,2728 16209,2728 16376,2728 16508,2705 16603,2662 16697,2619 16746,2556 16746,2475 16746,2444 16738,2421 16720,2401 16686,2363 16637,2337 16574,2326 16508,2312 16333,2306 16048,2306 Z M 16468,390 L 17033,390 17033,588 16712,588 C 16772,648 16812,700 16835,749 16864,815 16878,881 16878,953 16878,1074 16844,1177 16778,1266 16712,1355 16620,1424 16505,1476 16390,1525 16289,1550 16200,1550 16195,1550 16123,1547 15982,1542 15928,1542 15882,1559 15847,1593 15810,1628 15790,1671 15790,1720 15790,1763 15807,1800 15841,1826 15873,1855 15928,1869 16002,1869 L 16315,1863 C 16568,1863 16740,1892 16835,1947 16973,2024 17039,2142 17039,2303 17039,2403 17008,2495 16947,2579 16884,2665 16801,2725 16700,2765 16545,2823 16367,2852 16166,2852 16011,2852 15873,2837 15747,2808 15623,2780 15534,2740 15479,2685 15425,2633 15399,2579 15399,2521 15399,2467 15419,2418 15459,2372 15502,2329 15580,2291 15692,2263 15537,2185 15459,2079 15459,1941 15459,1861 15491,1780 15554,1700 15617,1622 15718,1556 15856,1499 15695,1438 15580,1361 15505,1263 15433,1165 15399,1056 15399,930 15399,766 15465,623 15600,502 15735,381 15907,321 16123,321 16232,321 16347,344 16468,390 Z"/>
   </g>
  </g>
  <g class="com.sun.star.drawing.ClosedBezierShape">
   <g id="id13">
    <rect class="BoundingBox" stroke="none" fill="none" x="1821" y="3159" width="3342" height="2445"/>
    <path fill="rgb(255,255,255)" stroke="none" d="M 3507,4773 L 4168,3159 5162,3159 5162,3228 5084,3228 C 5012,3228 4955,3239 4912,3265 4880,3283 4857,3308 4837,3349 4825,3377 4820,3452 4820,3578 L 4820,5187 C 4820,5310 4825,5388 4837,5420 4851,5451 4877,5480 4920,5503 4960,5526 5015,5537 5084,5537 L 5162,5537 5162,5603 3889,5603 3889,5537 3967,5537 C 4038,5537 4096,5526 4139,5500 4171,5483 4194,5454 4211,5414 4225,5385 4231,5308 4231,5187 L 4231,3374 3295,5603 3251,5603 2298,3392 2298,5112 C 2298,5233 2304,5308 2309,5333 2324,5394 2361,5443 2413,5480 2464,5517 2548,5537 2660,5537 L 2660,5603 1821,5603 1821,5537 1847,5537 C 1899,5537 1950,5529 1996,5511 2042,5491 2080,5468 2102,5437 2128,5405 2146,5362 2160,5305 2160,5293 2163,5230 2163,5121 L 2163,3578 C 2163,3449 2157,3374 2143,3343 2128,3311 2102,3285 2062,3262 2022,3239 1967,3228 1899,3228 L 1821,3228 1821,3159 2821,3159 3507,4773 Z"/>
   </g>
  </g>
  <g class="com.sun.star.drawing.ClosedBezierShape">
   <g id="id14">
    <rect class="BoundingBox" stroke="none" fill="none" x="5368" y="3868" width="1412" height="1789"/>
    <path fill="rgb(255,255,255)" stroke="none" d="M 6336,4577 C 6336,4385 6324,4253 6304,4181 6284,4109 6250,4055 6207,4017 6181,3994 6146,3983 6106,3983 6043,3983 5991,4014 5951,4075 5882,4184 5845,4330 5845,4514 L 5845,4577 6336,4577 Z M 6778,4698 L 5856,4698 C 5865,4925 5925,5100 6034,5229 6115,5330 6215,5379 6333,5379 6405,5379 6468,5359 6528,5319 6586,5278 6649,5207 6718,5103 L 6778,5143 C 6686,5327 6586,5459 6477,5537 6365,5614 6238,5655 6092,5655 5842,5655 5655,5557 5526,5364 5420,5212 5368,5020 5368,4787 5368,4506 5446,4282 5598,4115 5750,3951 5928,3868 6132,3868 6302,3868 6451,3937 6577,4078 6701,4216 6770,4425 6778,4698 Z"/>
   </g>
  </g>
  <g class="com.sun.star.drawing.ClosedBezierShape">
   <g id="id15">
    <rect class="BoundingBox" stroke="none" fill="none" x="6937" y="3101" width="914" height="2503"/>
    <path fill="rgb(255,255,255)" stroke="none" d="M 7391,3101 C 7474,3101 7540,3130 7592,3184 7646,3239 7675,3305 7675,3380 7675,3457 7646,3523 7592,3578 7537,3632 7471,3658 7391,3658 7316,3658 7250,3632 7196,3578 7141,3523 7115,3457 7115,3380 7115,3305 7141,3239 7196,3184 7250,3130 7316,3101 7391,3101 Z M 7646,3920 L 7646,5255 C 7646,5373 7661,5448 7690,5482 7715,5514 7770,5534 7850,5540 L 7850,5603 6937,5603 6937,5540 C 7012,5537 7069,5514 7104,5474 7127,5445 7141,5373 7141,5255 L 7141,4270 C 7141,4152 7127,4078 7098,4043 7072,4012 7017,3991 6937,3986 L 6937,3920 7646,3920 Z"/>
   </g>
  </g>
  <g class="com.sun.star.drawing.ClosedBezierShape">
   <g id="id16">
    <rect class="BoundingBox" stroke="none" fill="none" x="8014" y="3868" width="1819" height="1736"/>
    <path fill="rgb(255,255,255)" stroke="none" d="M 8698,3917 L 8698,4135 C 8784,4040 8867,3974 8948,3931 9025,3888 9111,3868 9203,3868 9312,3868 9401,3897 9473,3957 9548,4017 9594,4095 9620,4184 9637,4253 9648,4385 9648,4580 L 9648,5235 C 9648,5364 9660,5448 9683,5479 9706,5511 9758,5531 9832,5540 L 9832,5603 8976,5603 8976,5540 C 9042,5531 9085,5502 9114,5459 9134,5431 9143,5356 9143,5235 L 9143,4486 C 9143,4348 9137,4259 9126,4224 9117,4187 9097,4161 9071,4141 9045,4121 9016,4109 8988,4109 8884,4109 8787,4184 8698,4330 L 8698,5235 C 8698,5362 8709,5442 8735,5477 8758,5508 8801,5531 8864,5540 L 8864,5603 8014,5603 8014,5540 C 8083,5531 8135,5508 8163,5471 8183,5445 8195,5364 8195,5235 L 8195,4282 C 8195,4155 8183,4078 8160,4046 8135,4014 8086,3994 8014,3983 L 8014,3917 8698,3917 Z"/>
   </g>
  </g>
  <g class="com.sun.star.drawing.ClosedBezierShape">
   <g id="id17">
    <rect class="BoundingBox" stroke="none" fill="none" x="10013" y="3159" width="1819" height="2497"/>
    <path fill="rgb(255,255,255)" stroke="none" d="M 10714,4250 L 10714,5000 C 10714,5152 10717,5250 10722,5290 10737,5362 10766,5420 10809,5463 10855,5506 10915,5529 10984,5529 11047,5529 11099,5511 11142,5477 11185,5443 11222,5374 11251,5270 11280,5167 11297,4980 11297,4710 11297,4454 11262,4276 11199,4179 11153,4110 11090,4075 11010,4075 10906,4075 10809,4133 10714,4250 Z M 10714,3159 L 10714,4090 C 10855,3943 11010,3871 11176,3871 11291,3871 11400,3903 11504,3972 11607,4041 11688,4136 11745,4262 11802,4385 11831,4529 11831,4693 11831,4877 11794,5043 11722,5193 11647,5342 11550,5457 11426,5537 11303,5615 11162,5655 11007,5655 10915,5655 10834,5641 10763,5612 10691,5583 10622,5534 10553,5471 L 10274,5652 10214,5652 10214,3509 C 10214,3412 10211,3351 10203,3328 10188,3297 10171,3271 10145,3254 10119,3239 10076,3228 10013,3228 L 10013,3159 10714,3159 Z"/>
   </g>
  </g>
  <g class="com.sun.star.drawing.ClosedBezierShape">
   <g id="id18">
    <rect class="BoundingBox" stroke="none" fill="none" x="12130" y="3868" width="1411" height="1789"/>
    <path fill="rgb(255,255,255)" stroke="none" d="M 13098,4577 C 13098,4385 13086,4253 13066,4181 13043,4109 13012,4055 12969,4017 12943,3994 12908,3983 12865,3983 12805,3983 12753,4014 12713,4075 12644,4184 12607,4330 12607,4514 L 12607,4577 13098,4577 Z M 13540,4698 L 12615,4698 C 12627,4925 12687,5100 12794,5229 12877,5330 12977,5379 13092,5379 13164,5379 13230,5359 13290,5319 13348,5278 13411,5207 13480,5103 L 13540,5143 C 13448,5327 13348,5459 13239,5537 13127,5614 13000,5655 12854,5655 12604,5655 12411,5557 12285,5364 12182,5212 12130,5020 12130,4787 12130,4506 12205,4282 12357,4115 12512,3951 12690,3868 12894,3868 13064,3868 13213,3937 13336,4078 13463,4216 13529,4425 13540,4698 Z"/>
   </g>
  </g>
  <g class="com.sun.star.drawing.ClosedBezierShape">
   <g id="id19">
    <rect class="BoundingBox" stroke="none" fill="none" x="13757" y="3868" width="1450" height="1736"/>
    <path fill="rgb(255,255,255)" stroke="none" d="M 14444,3917 L 14444,4299 C 14559,4127 14657,4009 14740,3951 14827,3897 14907,3868 14984,3868 15051,3868 15105,3888 15145,3928 15186,3971 15206,4029 15206,4104 15206,4184 15186,4247 15148,4293 15108,4336 15062,4359 15007,4359 14941,4359 14887,4339 14841,4296 14795,4256 14766,4233 14758,4230 14746,4221 14732,4218 14717,4218 14683,4218 14648,4230 14617,4259 14568,4299 14531,4356 14505,4431 14465,4549 14444,4681 14444,4822 L 14444,5207 14447,5307 C 14447,5376 14450,5419 14459,5439 14473,5471 14496,5497 14528,5511 14554,5525 14602,5534 14669,5540 L 14669,5603 13758,5603 13758,5540 C 13830,5531 13882,5514 13907,5479 13933,5445 13945,5353 13945,5207 L 13945,4273 C 13945,4178 13939,4118 13930,4089 13919,4058 13902,4032 13879,4017 13856,4000 13815,3989 13758,3983 L 13758,3917 14444,3917 Z"/>
   </g>
  </g>
  <g class="com.sun.star.drawing.ClosedBezierShape">
   <g id="id20">
    <rect class="BoundingBox" stroke="none" fill="none" x="15399" y="3868" width="1641" height="2532"/>
    <path fill="rgb(255,255,255)" stroke="none" d="M 16154,3983 C 16085,3983 16025,4017 15976,4086 15928,4158 15905,4302 15905,4523 15905,4701 15928,4824 15976,4891 16022,4957 16083,4991 16146,4991 16218,4991 16278,4959 16327,4893 16376,4827 16399,4698 16399,4506 16399,4293 16373,4147 16318,4069 16278,4012 16226,3983 16154,3983 Z M 16048,5853 C 15925,5853 15844,5861 15804,5882 15735,5919 15701,5971 15701,6034 15701,6094 15735,6152 15807,6200 15879,6249 16011,6275 16209,6275 16376,6275 16508,6252 16603,6209 16697,6163 16746,6103 16746,6022 16746,5991 16738,5965 16720,5945 16686,5910 16637,5884 16574,5873 16508,5859 16333,5853 16048,5853 Z M 16468,3940 L 17033,3940 17033,4138 16712,4138 C 16772,4198 16812,4250 16835,4299 16864,4362 16878,4431 16878,4503 16878,4621 16844,4727 16778,4813 16712,4902 16620,4971 16505,5020 16390,5072 16289,5094 16200,5094 16195,5094 16123,5092 15982,5086 15928,5086 15882,5103 15847,5140 15810,5175 15790,5218 15790,5267 15790,5310 15807,5344 15841,5373 15873,5402 15928,5413 16002,5413 L 16315,5410 C 16568,5410 16740,5439 16835,5494 16973,5571 17039,5689 17039,5847 17039,5950 17008,6042 16947,6126 16884,6209 16801,6272 16700,6309 16545,6370 16367,6399 16166,6399 16011,6399 15873,6384 15747,6355 15623,6327 15534,6284 15479,6232 15425,6180 15399,6126 15399,6068 15399,6014 15419,5962 15459,5919 15502,5876 15580,5838 15692,5810 15537,5732 15459,5626 15459,5488 15459,5405 15491,5324 15554,5247 15617,5169 15718,5100 15856,5043 15695,4985 15580,4908 15505,4810 15433,4715 15399,4603 15399,4477 15399,4313 15465,4172 15600,4052 15735,3931 15907,3868 16123,3868 16232,3868 16347,3894 16468,3940 Z"/>
   </g>
  </g>
  <g class="com.sun.star.drawing.ClosedBezierShape">
   <g id="id21">
    <rect class="BoundingBox" stroke="none" fill="none" x="-4033" y="-814" width="5214" height="7407"/>
    <path fill="rgb(182,142,48)" stroke="none" d="M 64,2637 C -82,2453 -766,1907 -1019,1692 -1272,1476 -1412,1465 -1292,1238 -1171,1008 -944,1166 -944,1166 -1019,1470 -829,2053 -324,2053 185,2053 202,1801 305,1548 406,1292 314,1048 38,996 -238,945 1,1470 -229,1324 -456,1180 -209,896 -94,887 18,882 394,838 532,1585 673,2332 64,2637 64,2637 Z M -1631,6023 C -2323,6121 -2897,5931 -3311,5374 -3725,4817 -3337,4311 -2883,4279 -2432,4251 -2277,4693 -2533,4923 -2791,5150 -2590,5348 -2590,5348 -2590,5348 -2377,5658 -1895,5150 -1412,4644 -1927,4024 -1927,4024 -689,4104 -298,3728 -298,3728 -91,5348 -936,5928 -1631,6023 Z M -1375,-201 C -1375,-201 -1002,-75 -1065,376 -1128,824 -1249,1103 -1720,1091 -2188,1077 -2593,-385 -1375,-201 Z M 863,950 C 256,20 -622,568 -622,568 -378,-621 -1407,-807 -1407,-807 -2343,-888 -2636,-213 -2751,161 -2866,534 -2731,1307 -1978,1660 -1223,2016 -602,3079 -602,3079 -602,3079 -982,3524 -1927,3340 -2872,3156 -2782,1895 -2693,1723 -2604,1554 -2593,1355 -2659,1304 -2728,1252 -3090,1108 -3311,2165 -3529,3220 -2619,3754 -2619,3754 -3498,3610 -3851,4090 -3934,4268 -4020,4446 -4204,5087 -3641,5787 -3075,6491 -2171,6592 -1840,6592 -1510,6592 -91,6534 544,5299 1176,4064 570,3171 570,3171 1110,2697 1471,1878 863,950 Z"/>
   </g>
  </g>
  <g class="com.sun.star.drawing.PolyPolygonShape">
   <g id="id22">
    <rect class="BoundingBox" stroke="none" fill="none" x="-2054" y="-857" width="771" height="998"/>
    <path fill="rgb(255,255,255)" stroke="none" d="M -2054,140 L -1284,140 -1284,-857 -2054,-857 -2054,140 Z"/>
   </g>
  </g>
  <g class="com.sun.star.drawing.PolyPolygonShape">
   <g id="id23">
    <rect class="BoundingBox" stroke="none" fill="none" x="-3500" y="5425" width="490" height="814"/>
    <path fill="rgb(255,255,255)" stroke="none" d="M -3226,5425 L -3499,6083 -3269,6238 -3011,5615 -3226,5425 Z"/>
   </g>
  </g>
 </g>
</svg>